<svg width="24" height="24" viewBox="0 0 24 24" fill="none" xmlns="http://www.w3.org/2000/svg">
<g id="mingcute:check-2-line">
<g id="Group">
<path id="Vector" fill-rule="evenodd" clip-rule="evenodd" d="M19.4949 3.13302C19.7165 2.99973 19.9811 2.95746 20.2332 3.01507C20.4853 3.07268 20.7052 3.22571 20.8469 3.44202L21.8369 4.95202C21.966 5.14928 22.0212 5.38579 21.9928 5.61981C21.9645 5.85382 21.8544 6.0703 21.6819 6.23102L21.6789 6.23502L21.6649 6.24802L21.6079 6.30102L21.3829 6.51602C20.138 7.72368 18.9307 8.96961 17.7629 10.252C15.5659 12.668 12.9569 15.83 11.2009 18.898C10.7109 19.754 9.51391 19.938 8.80391 19.199L2.31891 12.461C2.22598 12.3644 2.15341 12.2501 2.10553 12.1249C2.05765 11.9997 2.03542 11.8662 2.04018 11.7322C2.04494 11.5983 2.07658 11.4666 2.13322 11.3451C2.18987 11.2236 2.27036 11.1148 2.36991 11.025L4.32991 9.25702C4.50215 9.10173 4.72301 9.01113 4.95469 9.00074C5.18637 8.99034 5.41445 9.06079 5.59991 9.20002L8.90891 11.681C14.0779 6.58402 17.0089 4.62802 19.4949 3.13302ZM19.7049 5.34902C17.4149 6.78102 14.5569 8.85802 9.70691 13.707C9.53672 13.8772 9.31085 13.9803 9.07077 13.9974C8.83068 14.0145 8.59249 13.9444 8.39991 13.8L5.05791 11.294L4.47691 11.818L9.79391 17.344C11.6399 14.274 14.1809 11.218 16.2839 8.90602C17.3914 7.68951 18.5335 6.50502 19.7089 5.35402L19.7049 5.34902Z" fill="#5F2DED"/>
</g>
</g>
</svg>
