<svg xmlns="http://www.w3.org/2000/svg" xmlns:xlink="http://www.w3.org/1999/xlink" width="384" zoomAndPan="magnify" viewBox="0 0 288 374.999991" height="500" preserveAspectRatio="xMidYMid meet" version="1.0"><defs><clipPath id="80b05819d4"><path d="M 0 97.457031 L 288 97.457031 L 288 374.589844 L 0 374.589844 Z M 0 97.457031 " clip-rule="nonzero"/></clipPath></defs><g clip-path="url(#80b05819d4)"><path fill="#ff9500" d="M 182.285156 163.15625 L 111.382812 163.15625 L 87.472656 163.210938 C 51.949219 163.296875 22.214844 135.339844 21.183594 99.835938 C 21.164062 99.203125 21.15625 98.570312 21.15625 97.933594 C 8.128906 110.4375 0.0195312 128.007812 0 147.484375 C -0.0390625 185.339844 31.820312 216.308594 69.679688 216.308594 L 179.53125 216.308594 C 208.625 216.308594 232.785156 239.609375 232.882812 268.703125 C 232.929688 283.28125 227.042969 296.484375 217.496094 306.039062 C 207.976562 315.558594 194.84375 321.4375 180.328125 321.4375 L 80.011719 321.4375 L 72.269531 321.488281 C 68.074219 321.511719 63.875 321.128906 59.804688 320.128906 C 46.507812 316.855469 35.390625 308.421875 28.957031 296.808594 C 22.699219 304.9375 18.988281 315.089844 18.988281 326.09375 C 18.988281 352.882812 40.988281 374.589844 68.132812 374.589844 C 68.34375 374.589844 68.546875 374.589844 68.761719 374.578125 L 68.761719 374.589844 L 182.285156 374.589844 C 211.476562 374.589844 237.90625 362.757812 257.03125 343.628906 C 276.167969 324.496094 288 298.066406 288 268.871094 C 288 210.496094 240.671875 163.15625 182.285156 163.15625 " fill-opacity="1" fill-rule="nonzero"/></g><path fill="#ff9500" d="M 90.804688 33.652344 L 149.902344 33.652344 C 171.378906 33.652344 188.789062 51.066406 188.789062 72.542969 C 188.789062 94.023438 171.378906 111.433594 149.902344 111.433594 L 123.566406 111.433594 C 105.472656 111.433594 90.804688 96.761719 90.804688 78.667969 Z M 85.347656 145.035156 C 86.003906 145.058594 86.65625 145.070312 87.316406 145.070312 L 111.367188 145.015625 L 182.285156 145.015625 C 183.054688 145.015625 183.824219 145.023438 184.59375 145.035156 C 195.878906 145.261719 206.847656 140.910156 214.847656 132.953125 C 214.902344 132.898438 214.953125 132.847656 215.007812 132.796875 C 229.273438 118.527344 238.03125 98.734375 237.78125 76.902344 C 237.300781 34.132812 201.785156 0.0195312 159.011719 0.0195312 L 41.808594 0.0195312 L 41.808594 99.183594 C 41.808594 123.621094 60.929688 144.191406 85.347656 145.035156 " fill-opacity="1" fill-rule="nonzero"/><path fill="#ff9500" d="M 64.199219 302.285156 C 66.433594 302.835938 69.011719 303.121094 71.859375 303.121094 L 80.011719 303.066406 L 90.804688 303.066406 L 90.804688 234.683594 L 69.675781 234.683594 C 60.085938 234.683594 50.695312 233.140625 41.804688 230.160156 L 41.804688 282.082031 L 45.027344 287.898438 C 48.96875 295.019531 55.953125 300.261719 64.199219 302.285156 " fill-opacity="1" fill-rule="nonzero"/></svg>