<svg width="79" height="34" viewBox="0 0 79 34" fill="none" xmlns="http://www.w3.org/2000/svg">
<g id="Logo" clip-path="url(#clip0_23_31887)">
<g id="Vector">
<path fill-rule="evenodd" clip-rule="evenodd" d="M48.6609 26.7792C44.1534 30.1016 37.62 31.8743 31.9949 31.8743C24.1076 31.8743 17.007 28.957 11.6351 24.1051C11.213 23.7236 11.5912 23.2036 12.0976 23.5007C17.895 26.8738 25.0631 28.903 32.4676 28.903C37.4613 28.903 42.9548 27.8698 48.0059 25.7258C48.769 25.4016 49.4071 26.2255 48.6609 26.7792Z" fill="#4C4C4D"/>
<path fill-rule="evenodd" clip-rule="evenodd" d="M50.5349 24.6352C49.9609 23.8992 46.7263 24.2875 45.2744 24.4596C44.8321 24.5137 44.7646 24.1288 45.163 23.8519C47.7392 22.0388 51.9665 22.5621 52.4594 23.1699C52.9524 23.781 52.3311 28.0184 49.9102 30.0409C49.5388 30.3515 49.1843 30.1861 49.3498 29.7741C49.8934 28.4168 51.1122 25.3747 50.5349 24.6352Z" fill="#4C4C4D"/>
</g>
<g id="Vector_2">
<path fill-rule="evenodd" clip-rule="evenodd" d="M45.3766 11.0526V9.29008C45.3766 9.02335 45.5792 8.8444 45.8223 8.8444H53.713C53.9662 8.8444 54.1688 9.02672 54.1688 9.29008V10.7993C54.1654 11.0526 53.9527 11.3835 53.5746 11.9068L49.4857 17.7446C51.0051 17.7075 52.6089 17.9337 53.9865 18.7103C54.2971 18.8859 54.3815 19.1425 54.4052 19.3957V21.2764C54.4052 21.533 54.1215 21.8335 53.8244 21.6782C51.3968 20.4053 48.1723 20.2668 45.488 21.6917C45.2145 21.8403 44.9275 21.5431 44.9275 21.2865V19.5004C44.9275 19.2134 44.9309 18.7238 45.2179 18.2883L49.955 11.4949H45.8324C45.5792 11.4949 45.3766 11.3159 45.3766 11.0526Z" fill="#4C4C4D"/>
<path fill-rule="evenodd" clip-rule="evenodd" d="M16.5926 22.0496H14.1919C13.9623 22.0327 13.78 21.8605 13.7631 21.6411V9.3205C13.7631 9.07402 13.9691 8.87818 14.2257 8.87818H16.4643C16.6972 8.88831 16.8829 9.06726 16.8998 9.29011V10.9007H16.9437C17.5278 9.34413 18.6252 8.6182 20.104 8.6182C21.6066 8.6182 22.5452 9.34413 23.2205 10.9007C23.8012 9.34413 25.1214 8.6182 26.5361 8.6182C27.5423 8.6182 28.643 9.0335 29.3149 9.96539C30.0746 11.002 29.9193 12.5078 29.9193 13.828L29.9159 21.6039C29.9159 21.8504 29.71 22.0496 29.4534 22.0496H27.0561C26.8164 22.0327 26.6239 21.8403 26.6239 21.6039V15.0739C26.6239 14.554 26.6712 13.2574 26.5564 12.7644C26.3774 11.9372 25.8406 11.7042 25.145 11.7042C24.5643 11.7042 23.9565 12.0925 23.7101 12.7138C23.4636 13.3351 23.4872 14.375 23.4872 15.0739V21.6039C23.4872 21.8504 23.2813 22.0496 23.0247 22.0496H20.6274C20.3843 22.0327 20.1952 21.8403 20.1952 21.6039L20.1918 15.0739C20.1918 13.6997 20.4181 11.6772 18.713 11.6772C16.9876 11.6772 17.0551 13.6491 17.0551 15.0739V21.6039C17.0551 21.8504 16.8492 22.0496 16.5926 22.0496Z" fill="#4C4C4D"/>
<path fill-rule="evenodd" clip-rule="evenodd" d="M60.9621 8.6182C64.5242 8.6182 66.4521 11.6772 66.4521 15.5669C66.4521 19.3248 64.3216 22.3062 60.9621 22.3062C57.4641 22.3062 55.5598 19.2472 55.5598 15.4352C55.5598 11.5996 57.4877 8.6182 60.9621 8.6182ZM60.9823 11.1336C59.2131 11.1336 59.1017 13.5444 59.1017 15.0469C59.1017 16.5528 59.078 19.7671 60.9621 19.7671C62.8225 19.7671 62.9103 17.1741 62.9103 15.5939C62.9103 14.554 62.8664 13.3114 62.5524 12.3255C62.2823 11.4679 61.7454 11.1336 60.9823 11.1336Z" fill="#4C4C4D"/>
<path fill-rule="evenodd" clip-rule="evenodd" d="M71.0712 22.0496H68.6807C68.4409 22.0327 68.2485 21.8403 68.2485 21.6039L68.2451 9.27998C68.2654 9.05376 68.4646 8.87818 68.7077 8.87818H70.9328C71.1421 8.88831 71.3143 9.03012 71.3616 9.22258V11.1066H71.4054C72.0774 9.42179 73.0194 8.6182 74.6772 8.6182C75.7543 8.6182 76.8043 9.00649 77.4796 10.0701C78.1076 11.056 78.1076 12.7138 78.1076 13.9057V21.6613C78.0806 21.8774 77.8814 22.0496 77.6451 22.0496H75.2377C75.0182 22.0327 74.8359 21.8707 74.8123 21.6613V14.9693C74.8123 13.6221 74.9676 11.6502 73.3097 11.6502C72.7256 11.6502 72.1888 12.0419 71.922 12.6361C71.5844 13.3891 71.5405 14.1387 71.5405 14.9693V21.6039C71.5371 21.8504 71.3278 22.0496 71.0712 22.0496Z" fill="#4C4C4D"/>
<path fill-rule="evenodd" clip-rule="evenodd" d="M39.0863 16.1645C39.0863 17.0998 39.11 17.8797 38.6373 18.7103C38.2557 19.3856 37.648 19.8009 36.9761 19.8009C36.0543 19.8009 35.5141 19.0986 35.5141 18.062C35.5141 16.0159 37.3475 15.6445 39.0863 15.6445V16.1645ZM41.5072 22.0158C41.3485 22.1576 41.1189 22.1678 40.94 22.0732C40.1432 21.4114 39.998 21.1042 39.5624 20.4728C38.2456 21.8166 37.3103 22.2184 35.6052 22.2184C33.5828 22.2184 32.0127 20.9725 32.0127 18.4773C32.0127 16.5291 33.0662 15.2022 34.5721 14.5539C35.8754 13.9799 37.6953 13.8786 39.0863 13.72V13.4093C39.0863 12.8387 39.1302 12.1634 38.7926 11.6705C38.5022 11.2282 37.9417 11.0458 37.4454 11.0458C36.5304 11.0458 35.7167 11.5151 35.5175 12.4876C35.4769 12.7036 35.3183 12.9164 35.0988 12.9265L32.7724 12.6766C32.5766 12.6327 32.3571 12.4741 32.4145 12.1736C32.948 9.35086 35.5006 8.5 37.783 8.5C38.9513 8.5 40.4774 8.81063 41.3992 9.69525C42.5674 10.7858 42.456 12.2411 42.456 13.8246V17.5657C42.456 18.6901 42.922 19.183 43.3609 19.7908C43.5128 20.0069 43.5466 20.2668 43.3507 20.4289C42.8612 20.8375 41.9901 21.5972 41.5106 22.0226L41.5072 22.0158Z" fill="#4C4C4D"/>
<path fill-rule="evenodd" clip-rule="evenodd" d="M7.61462 16.1645C7.61462 17.0997 7.63825 17.8797 7.16556 18.7103C6.78402 19.3856 6.17964 19.8009 5.50435 19.8009C4.58259 19.8009 4.04574 19.0986 4.04574 18.062C4.04574 16.0159 5.87914 15.6445 7.61462 15.6445V16.1645ZM10.0355 22.0158C9.87682 22.1576 9.64722 22.1678 9.46827 22.0732C8.67144 21.4114 8.52963 21.1042 8.09069 20.4728C6.77389 21.8166 5.842 22.2184 4.13353 22.2184C2.11443 22.2184 0.541016 20.9725 0.541016 18.4773C0.541016 16.5291 1.59784 15.2022 3.10034 14.5539C4.40364 13.9799 6.22353 13.8786 7.61462 13.72V13.4093C7.61462 12.8387 7.65851 12.1634 7.32425 11.6705C7.0305 11.2281 6.47001 11.0458 5.97705 11.0458C5.06205 11.0458 4.24495 11.5151 4.04574 12.4876C4.00522 12.7036 3.84653 12.9164 3.63044 12.9265L1.30071 12.6766C1.10488 12.6327 0.888786 12.474 0.942809 12.1735C1.47966 9.35086 4.02886 8.5 6.31132 8.5C7.47956 8.5 9.0057 8.81063 9.92747 9.69525C11.0957 10.7858 10.9843 12.2411 10.9843 13.8246V17.5657C10.9843 18.69 11.4502 19.183 11.8892 19.7908C12.0445 20.0068 12.0782 20.2668 11.8824 20.4289C11.3928 20.8374 10.5217 21.5971 10.0423 22.0226L10.0355 22.0158Z" fill="#4C4C4D"/>
</g>
</g>
<defs>
<clipPath id="clip0_23_31887">
<rect width="77.9166" height="34" fill="white" transform="translate(0.541992)"/>
</clipPath>
</defs>
</svg>
