<svg width="100" height="34" viewBox="0 0 100 34" fill="none" xmlns="http://www.w3.org/2000/svg">
<g id="Logo" clip-path="url(#clip0_23_31881)">
<path id="Vector" d="M15.2747 2.18079C7.05948 2.18079 0.399414 8.84067 0.399414 17.0559C0.399414 25.2714 7.05948 31.9308 15.2747 31.9308C23.4908 31.9308 30.1501 25.2714 30.1501 17.0559C30.1501 8.8412 23.4908 2.1815 15.2745 2.1815L15.2747 2.18079ZM22.0964 23.6349C21.83 24.0719 21.258 24.2105 20.821 23.9422C17.3285 21.8089 12.9318 21.3257 7.75383 22.5088C7.25487 22.6224 6.75751 22.3098 6.64382 21.8107C6.52961 21.3115 6.84099 20.8142 7.3412 20.7005C13.0076 19.4059 17.8681 19.9633 21.7891 22.3596C22.2261 22.6278 22.3646 23.198 22.0964 23.6349ZM23.9171 19.5846C23.5814 20.1303 22.8673 20.3026 22.322 19.9669C18.3235 17.5092 12.2285 16.7974 7.49911 18.233C6.88576 18.4183 6.23794 18.0726 6.05178 17.4603C5.86705 16.847 6.21289 16.2004 6.82518 16.0139C12.2274 14.3747 18.9435 15.1687 23.5352 17.9904C24.0805 18.3261 24.2528 19.0402 23.9171 19.5848V19.5846ZM24.0734 15.367C19.2792 12.5194 11.3693 12.2576 6.79197 13.6468C6.05693 13.8697 5.27962 13.4548 5.05688 12.7197C4.83413 11.9844 5.24872 11.2076 5.98428 10.9841C11.2388 9.38901 19.9737 9.6972 25.4934 12.9739C26.156 13.3663 26.3727 14.2202 25.9801 14.8804C25.5893 15.5416 24.7331 15.7595 24.0741 15.367H24.0734ZM40.8701 15.9126C38.3016 15.3002 37.8451 14.8703 37.8451 13.9671C37.8451 13.1137 38.648 12.5395 39.8434 12.5395C41.0016 12.5395 42.1491 12.9755 43.3534 13.8733C43.3889 13.9005 43.4351 13.9113 43.4795 13.9042C43.5257 13.8974 43.5648 13.8727 43.5914 13.8356L44.8455 12.0678C44.897 11.995 44.8828 11.8947 44.8135 11.8391C43.38 10.6893 41.7672 10.1303 39.8807 10.1303C37.1079 10.1303 35.17 11.7945 35.17 14.1756C35.17 16.729 36.8415 17.6332 39.7297 18.3311C42.1864 18.8972 42.602 19.3715 42.602 20.2191C42.602 21.1588 41.7636 21.7432 40.4136 21.7432C38.9144 21.7432 37.6905 21.2369 36.3228 20.0539C36.289 20.0237 36.2429 20.0113 36.2002 20.0131C36.154 20.0166 36.1132 20.0379 36.0848 20.0717L34.6779 21.7449C34.6193 21.816 34.6264 21.919 34.6939 21.9794C36.2855 23.4005 38.243 24.1501 40.3568 24.1501C43.3445 24.1501 45.2754 22.5176 45.2754 19.99C45.2807 17.8572 44.0035 16.6759 40.8755 15.915L40.8701 15.9126ZM52.036 13.3796C50.741 13.3796 49.6788 13.8898 48.8013 14.9352V13.7585C48.8013 13.6656 48.7267 13.59 48.6343 13.59H46.334C46.2417 13.59 46.1671 13.6656 46.1671 13.7585V26.8323C46.1671 26.9246 46.2417 27.001 46.334 27.001H48.6343C48.7267 27.001 48.8013 26.9246 48.8013 26.8323V22.7059C49.6788 23.6882 50.741 24.1696 52.036 24.1696C54.4428 24.1696 56.8799 22.3169 56.8799 18.7752C56.8835 15.2327 54.4464 13.3795 52.0377 13.3795L52.036 13.3796ZM54.2048 18.7752C54.2048 20.5779 53.0946 21.8373 51.5031 21.8373C49.931 21.8373 48.7445 20.5211 48.7445 18.7752C48.7445 17.0291 49.931 15.7132 51.5031 15.7132C53.068 15.713 54.2048 17.0005 54.2048 18.775V18.7752ZM63.1236 13.3796C60.024 13.3796 57.5958 15.7663 57.5958 18.8137C57.5958 21.8284 60.008 24.1891 63.0863 24.1891C66.1966 24.1891 68.6319 21.8107 68.6319 18.7752C68.6319 15.7499 66.2126 13.38 63.1236 13.38V13.3796ZM63.1236 21.8551C61.4752 21.8551 60.2318 20.53 60.2318 18.7743C60.2318 17.0106 61.4326 15.7308 63.0863 15.7308C64.7454 15.7308 65.9959 17.0553 65.9959 18.8128C65.9959 20.5761 64.788 21.8551 63.1236 21.8551ZM75.2504 13.59H72.7192V11.0026C72.7192 10.9099 72.6446 10.8342 72.5522 10.8342H70.2519C70.1596 10.8342 70.0832 10.9099 70.0832 11.0026V13.59H68.9783C68.8859 13.59 68.8113 13.6656 68.8113 13.7585V15.735C68.8113 15.8277 68.8859 15.9036 68.9783 15.9036H70.0832V21.0184C70.0832 23.0843 71.1116 24.1323 73.142 24.1323C73.9662 24.1323 74.65 23.9618 75.2948 23.5959C75.3481 23.5674 75.3801 23.5106 75.3801 23.4502V21.5673C75.3801 21.5105 75.3499 21.4554 75.3002 21.4252C75.2504 21.3932 75.1883 21.3915 75.1367 21.4181C74.6945 21.6401 74.2664 21.7432 73.7868 21.7432C73.0496 21.7432 72.7192 21.4075 72.7192 20.6579V15.9045H75.2504C75.3428 15.9045 75.4174 15.8288 75.4174 15.7359V13.7596C75.421 13.6667 75.3464 13.591 75.2522 13.591L75.2504 13.59ZM84.068 13.6001V13.2823C84.068 12.3474 84.4268 11.9305 85.2297 11.9305C85.7093 11.9305 86.0947 12.0257 86.5264 12.1696C86.5797 12.1863 86.6348 12.178 86.6774 12.1462C86.7218 12.1144 86.7467 12.0634 86.7467 12.0094V10.0715C86.7467 9.99739 86.7005 9.93185 86.6276 9.91C86.1729 9.77447 85.5903 9.63538 84.7163 9.63538C82.5937 9.63538 81.4693 10.8315 81.4693 13.0933V13.58H80.3644C80.272 13.58 80.1957 13.6557 80.1957 13.7484V15.735C80.1957 15.8277 80.272 15.9036 80.3644 15.9036H81.4693V23.7912C81.4693 23.8854 81.5456 23.96 81.638 23.96H83.9365C84.0307 23.96 84.1053 23.8854 84.1053 23.7912V15.9041H86.2528L89.5426 23.7912C89.1695 24.619 88.8018 24.7842 88.3009 24.7842C87.8959 24.7842 87.4678 24.6634 87.0326 24.4236C86.9918 24.4023 86.942 24.3987 86.8994 24.4112C86.855 24.4272 86.8177 24.4591 86.7999 24.5018L86.0201 26.2123C85.9828 26.2941 86.0148 26.3882 86.093 26.4308C86.9065 26.8714 87.6401 27.0596 88.5478 27.0596C90.246 27.0596 91.1856 26.2674 92.0116 24.1394L96.0012 13.8303C96.0225 13.7784 96.0154 13.7198 95.9834 13.6738C95.9532 13.6281 95.9017 13.6006 95.8466 13.6006H93.4522C93.3794 13.6006 93.3154 13.6463 93.2923 13.7136L90.8393 20.7182L88.1535 13.709C88.1286 13.6438 88.0664 13.6006 87.9972 13.6006H84.068V13.6001ZM78.9558 13.59H76.6555C76.5631 13.59 76.4867 13.6656 76.4867 13.7585V23.7912C76.4867 23.8854 76.5631 23.96 76.6555 23.96H78.9558C79.0482 23.96 79.1245 23.8854 79.1245 23.7912V13.7592C79.1245 13.6663 79.0499 13.5907 78.9558 13.5907V13.59ZM77.819 9.02149C76.9077 9.02149 76.1688 9.75901 76.1688 10.6701C76.1688 11.5817 76.9077 12.3201 77.819 12.3201C78.7302 12.3201 79.4674 11.5817 79.4674 10.6701C79.4674 9.75919 78.7284 9.02149 77.819 9.02149ZM97.9658 16.8159C97.0563 16.8159 96.3476 16.0849 96.3476 15.1973C96.3476 14.3097 97.0652 13.5704 97.9747 13.5704C98.8841 13.5704 99.5929 14.3012 99.5929 15.1881C99.5929 16.0757 98.8752 16.8159 97.9658 16.8159ZM97.9747 13.7314C97.1451 13.7314 96.5181 14.3904 96.5181 15.1973C96.5181 16.004 97.1416 16.6541 97.9658 16.6541C98.7953 16.6541 99.4223 15.9956 99.4223 15.1881C99.4223 14.3815 98.7989 13.7314 97.9747 13.7314ZM98.3335 15.3545L98.7917 15.9954H98.4045L97.9924 15.4075H97.6389V15.9954H97.3156V14.2966H98.0723C98.4685 14.2966 98.7278 14.4985 98.7278 14.8385C98.7296 15.117 98.5679 15.2872 98.3352 15.3545H98.3335ZM98.0599 14.5881H97.6389V15.1254H98.0599C98.2695 15.1254 98.3956 15.0225 98.3956 14.8565C98.3956 14.6817 98.2695 14.5881 98.0599 14.5881Z" fill="#4C4C4D"/>
</g>
<defs>
<clipPath id="clip0_23_31881">
<rect width="99.1667" height="34" fill="white" transform="translate(0.345703)"/>
</clipPath>
</defs>
</svg>
