<svg width="95" height="34" viewBox="0 0 95 34" fill="none" xmlns="http://www.w3.org/2000/svg">
<g id="Logo" clip-path="url(#clip0_23_31891)">
<path id="Vector" d="M11.0481 4.25H0.681641V29.0417L11.0481 4.25Z" fill="#4C4C4D"/>
<path id="Vector_2" d="M18.3418 4.25H28.6947V29.0417L18.3418 4.25Z" fill="#4C4C4D"/>
<path id="Vector_3" d="M14.6946 13.3875L21.2927 29.0419H16.9637L14.9918 24.0579H10.1631L14.6946 13.3875Z" fill="#4C4C4D"/>
<path id="Vector_4" d="M45.6077 20.0147L46.83 23.5197C46.8706 23.6074 46.9313 23.648 47.0394 23.648H49.3896C49.5179 23.648 49.5382 23.5872 49.5179 23.4589L44.6622 9.97237C44.642 9.86432 44.6217 9.84406 44.5136 9.84406H41.5962C41.5151 9.84406 41.4679 9.90484 41.4679 9.99263C41.4273 10.7017 41.3666 10.9178 41.2788 11.1272L36.9498 23.4386C36.9296 23.5872 36.9769 23.648 37.0984 23.648H39.1987C39.327 23.648 39.3878 23.6074 39.4351 23.4791L40.5899 20.0147H45.6077ZM41.2585 17.7253C41.8933 15.8073 42.7307 13.3491 43.0684 11.9444H43.0887C43.5074 13.4166 44.4934 16.3341 44.9391 17.7253H41.2585Z" fill="#4C4C4D"/>
<path id="Vector_5" d="M55.7605 23.8567C57.0233 23.8567 58.3673 23.6271 59.7315 23.0395C59.8395 22.999 59.8598 22.9517 59.8598 22.8504C59.8192 22.4723 59.772 21.9252 59.772 21.5065V8.81016C59.772 8.72912 59.772 8.6886 59.6707 8.6886H57.3813C57.2935 8.6886 57.253 8.72912 57.253 8.83717V13.1391C56.895 13.0986 56.6452 13.0783 56.348 13.0783C52.6539 13.0783 50.3848 15.5163 50.3848 18.562C50.3848 22.0941 52.7147 23.8567 55.7605 23.8567ZM57.253 21.5065C56.8748 21.6281 56.4561 21.6754 56.0306 21.6754C54.3558 21.6754 52.9848 20.7299 52.9848 18.4337C52.9848 16.401 54.3963 15.1989 56.267 15.1989C56.6452 15.1989 56.9761 15.2394 57.253 15.3474V21.5065Z" fill="#4C4C4D"/>
<path id="Vector_6" d="M67.1612 13.0793C64.0074 13.0793 62.0557 15.4971 62.0557 18.4821C62.0557 21.1496 63.6089 23.8577 67.1139 23.8577C70.0787 23.8577 72.1587 21.6764 72.1587 18.4145C72.1587 15.5376 70.3961 13.0793 67.1612 13.0793ZM67.0329 15.1999C68.8158 15.1999 69.5722 16.7329 69.5722 18.4821C69.5722 20.6431 68.4579 21.7169 67.1612 21.7169C65.5607 21.7169 64.6152 20.373 64.6152 18.4348C64.6152 16.4425 65.6214 15.1999 67.0329 15.1999Z" fill="#4C4C4D"/>
<path id="Vector_7" d="M74.5265 8.6886C74.4387 8.6886 74.3779 8.72912 74.3779 8.83717V23.2084C74.3779 23.2692 74.4387 23.3772 74.5265 23.3975C75.5328 23.7081 76.5863 23.8567 77.6736 23.8567C80.7869 23.8567 83.8124 21.9252 83.8124 18.0353C83.8124 15.2191 81.8809 13.0783 78.8554 13.0783C78.1598 13.0783 77.5115 13.1864 76.9442 13.3754L76.9172 8.85743C76.9172 8.70886 76.8767 8.6886 76.7281 8.6886H74.5265ZM81.2258 18.2919C81.2258 20.6218 79.6321 21.7159 77.9099 21.7159C77.552 21.7159 77.2346 21.6956 76.9442 21.6078V15.4757C77.2751 15.3474 77.6736 15.2394 78.4097 15.2394C80.071 15.2394 81.2258 16.2929 81.2258 18.2919Z" fill="#4C4C4D"/>
<path id="Vector_8" d="M92.357 19.0493C93.3835 19.0493 94.2276 19.0291 94.518 18.9615C94.6261 18.9413 94.6666 18.9008 94.6869 18.813C94.7477 18.5834 94.7747 18.1039 94.7747 17.5163C94.7747 15.5173 93.5726 13.0793 90.466 13.0793C87.2919 13.0793 85.5293 15.6659 85.5293 18.5834C85.5293 21.1699 86.8935 23.8577 90.7159 23.8577C92.1476 23.8577 93.0728 23.6281 93.8697 23.2499C93.9508 23.2094 93.9913 23.1419 93.9913 23.0203V21.2712C93.9913 21.1699 93.9305 21.1496 93.8697 21.1902C93.0728 21.5278 92.2084 21.6967 91.2629 21.6967C89.1221 21.6967 88.1496 20.5148 88.0888 19.0493H92.357ZM88.0888 17.2394C88.2577 16.2129 88.906 15.0986 90.358 15.0986C91.9585 15.0986 92.3772 16.4425 92.3772 17.0503C92.3772 17.0706 92.3772 17.1584 92.3772 17.2192C92.2894 17.2394 92.0193 17.2394 91.2224 17.2394H88.0888Z" fill="#4C4C4D"/>
</g>
<defs>
<clipPath id="clip0_23_31891">
<rect width="94.2083" height="34" fill="white" transform="translate(0.681641)"/>
</clipPath>
</defs>
</svg>
