<svg width="1440" height="640" viewBox="0 0 1440 640" fill="none" xmlns="http://www.w3.org/2000/svg">
<mask id="mask0_1_76498" style="mask-type:alpha" maskUnits="userSpaceOnUse" x="0" y="0" width="1440" height="640">
<rect width="1440" height="640" fill="#53AA51"/>
</mask>
<g mask="url(#mask0_1_76498)">
<g opacity="0.3">
<path d="M957.683 -140.507V-152H950.906V-140.507H492.389V-152H485.612V-140.507H-23V787.507H485.612V799H492.389V787.507H950.758V799H957.389V787.507H1466V-140.507H957.683ZM725.036 211.366C785.445 213.134 833.919 262.792 833.919 323.5C833.919 384.208 785.445 433.865 725.036 435.634V211.366ZM-16.2224 202.673L283.316 210.335C281.106 211.072 278.896 211.808 276.686 212.692L273.592 213.871L276.097 220.207L279.191 219.028C283.316 217.408 287.442 216.081 291.714 214.903L294.956 214.019L294.072 210.63L310.279 211.072V211.661L313.668 211.514C314.699 211.514 315.731 211.514 316.762 211.366V435.781C315.731 435.781 314.699 435.781 313.668 435.634L310.279 435.486V436.076L294.367 436.518L295.251 433.129L292.009 432.245C287.736 431.213 283.464 429.74 279.485 428.119L276.391 426.94L273.887 433.276L276.981 434.455C279.043 435.339 281.253 436.076 283.464 436.812L-16.0751 444.475V202.673H-16.2224ZM-16.2224 451.253L75.1273 448.895V460.094H81.9048V448.748L135.536 447.422V458.62H142.313V447.274L195.945 445.948V457.147H202.722V445.801L256.353 444.475V455.673H263.131V444.327L320.151 442.854H323.54V442.707C387.632 440.938 439.2 388.334 439.2 323.795C439.2 259.255 387.632 206.651 323.54 204.883V204.736H320.151L263.131 203.262V191.916H256.353V203.115L202.722 201.789V190.443H195.945V201.641L142.313 200.315V188.969H135.536V200.168L81.9048 198.841V187.495H75.1273V198.694L-16.2224 196.337V-32.0567L109.015 -29.1097C303.649 -29.1097 462.037 129.292 462.037 323.942C462.037 518.592 303.649 676.994 108.868 676.994L-16.3698 679.941V451.253H-16.2224ZM320.151 435.781C321.329 435.781 322.361 435.781 323.54 435.634V211.366C383.948 213.134 432.422 262.792 432.422 323.5C432.422 384.208 383.948 433.865 323.54 435.634V435.781H320.151ZM718.259 435.781C657.85 434.013 609.376 384.356 609.376 323.647C609.376 262.939 657.85 213.282 718.259 211.514V435.781ZM718.259 204.588C654.166 206.356 602.598 258.96 602.598 323.5C602.598 388.039 654.166 440.644 718.259 442.412V780.729H492.389V769.235H485.612V780.729H-16.2224V686.277L109.015 683.33C307.332 683.33 468.815 521.981 468.815 323.5C468.815 125.019 307.48 -36.3299 109.162 -36.3299L-16.2224 -39.2769V-133.729H485.612V-122.235H492.389V-133.729H718.259V204.588ZM1459.52 444.475L1159.98 436.812C1162.19 436.076 1164.4 435.339 1166.46 434.455L1169.56 433.276L1167.05 426.94L1163.96 428.119C1159.83 429.74 1155.56 431.066 1151.43 432.245L1148.19 433.129L1149.08 436.518L1133.16 436.076V435.486L1129.77 435.634C1128.74 435.634 1127.71 435.634 1126.68 435.781V211.366C1127.71 211.366 1128.74 211.366 1129.77 211.514L1133.16 211.661V211.072L1149.37 210.63L1148.49 214.019L1151.73 214.903C1156 216.081 1160.27 217.408 1164.25 219.028L1167.35 220.207L1169.85 213.871L1166.76 212.692C1164.55 211.808 1162.34 211.072 1160.13 210.335L1459.66 202.673V444.475H1459.52ZM1459.52 195.895L1368.17 198.252V187.053H1361.39V198.399L1307.76 199.726V188.527H1300.98V199.873L1247.35 201.199V190H1240.57V201.346L1186.94 202.673V191.474H1180.16V202.82L1123.14 204.293H1119.76V204.441C1055.66 206.209 1004.09 258.813 1004.09 323.353C1004.09 387.892 1055.66 440.496 1119.76 442.264V442.412H1123.14L1180.16 443.885V455.231H1186.94V444.033L1240.57 445.359V456.705H1247.35V445.506L1300.98 446.832V458.178H1307.76V446.98L1361.39 448.306V459.652H1368.17V448.453L1459.52 450.811V679.204L1334.28 676.257C1139.65 676.257 981.257 517.855 981.257 323.205C981.257 128.555 1139.65 -29.8465 1334.43 -29.8465L1459.66 -32.7935V195.895H1459.52ZM1119.9 211.366V435.781C1059.49 434.013 1011.02 384.356 1011.02 323.647C1011.02 262.792 1059.49 213.134 1119.9 211.366ZM1459.52 -39.1295L1334.28 -36.1825C1135.96 -36.1825 974.48 125.166 974.48 323.647C974.48 522.128 1135.96 683.33 1334.13 683.33L1459.52 686.277V780.876H957.683V769.383H950.906V780.876H725.036V442.559C789.128 440.791 840.697 388.187 840.697 323.647C840.697 259.108 789.128 206.504 725.036 204.736V-133.729H950.906V-122.235H957.683V-133.729H1459.52V-39.1295Z" fill="#479547"/>
<path d="M78.516 290.199C63.1929 290.199 50.3744 300.513 46.3963 314.659H30.0418V267.802H23.2642V379.198H30.0418V332.341H46.5436C50.3744 346.339 63.3402 356.801 78.6634 356.801C97.0807 356.801 111.962 341.919 111.962 323.5C111.814 305.229 96.9333 290.199 78.516 290.199ZM30.0418 325.71V321.437H45.3649C45.3649 322.174 45.2176 322.911 45.2176 323.5C45.2176 324.237 45.2176 324.974 45.3649 325.563H30.0418V325.71ZM78.516 350.17C63.9295 350.17 51.9952 338.235 51.9952 323.647C51.9952 309.06 63.9295 297.124 78.516 297.124C93.1025 297.124 105.037 309.06 105.037 323.647C105.037 338.235 93.1025 350.17 78.516 350.17Z" fill="#479547"/>
<path d="M225.56 384.208L223.792 381.261L218.045 384.945L219.813 387.745C222.318 391.723 225.118 395.407 228.064 399.091L230.274 401.743L235.431 397.47L233.221 394.818C230.569 391.429 227.917 387.892 225.56 384.208Z" fill="#479547"/>
<path d="M225.56 263.086C227.917 259.402 230.569 255.719 233.368 252.33L235.579 249.677L230.422 245.404L228.212 248.057C225.265 251.593 222.465 255.424 219.961 259.402L218.193 262.202L223.939 265.886L225.56 263.086Z" fill="#479547"/>
<path d="M211.415 295.209C212.594 290.936 213.92 286.662 215.541 282.684L216.719 279.59L210.384 277.085L209.205 280.179C207.437 284.452 206.111 289.02 204.932 293.588L204.048 296.83L210.531 298.598L211.415 295.209Z" fill="#479547"/>
<path d="M211.562 351.939L210.678 348.697L204.196 350.465L205.08 353.707C206.258 358.275 207.732 362.695 209.352 366.968L210.531 370.063L216.867 367.558L215.688 364.463C213.92 360.485 212.594 356.212 211.562 351.939Z" fill="#479547"/>
<path d="M248.839 236.858C252.228 234.058 255.764 231.406 259.595 229.048L262.394 227.28L258.711 221.533L255.911 223.302C251.933 225.807 248.25 228.606 244.566 231.553L241.914 233.764L246.187 238.921L248.839 236.858Z" fill="#479547"/>
<path d="M208.026 330.278C207.879 328.068 207.879 325.858 207.879 323.647C207.879 321.437 207.879 319.227 208.026 317.164L208.174 313.775L201.396 313.333L201.249 316.722C201.101 319.079 201.101 321.29 201.101 323.647C201.101 326.005 201.101 328.363 201.249 330.72L201.396 334.109L208.174 333.667L208.026 330.278Z" fill="#479547"/>
<path d="M248.986 410.437L246.334 408.227L242.061 413.384L244.714 415.594C248.25 418.541 252.08 421.341 256.059 423.846L258.858 425.614L262.541 419.867L259.742 418.099C255.911 415.741 252.375 413.236 248.986 410.437Z" fill="#479547"/>
<path d="M1364.93 356.801C1380.25 356.801 1393.07 346.487 1397.05 332.341H1413.55V379.198H1420.33V267.802H1413.55V314.659H1397.05C1393.22 300.661 1380.25 290.199 1364.93 290.199C1346.51 290.199 1331.63 305.081 1331.63 323.5C1331.63 341.919 1346.51 356.801 1364.93 356.801ZM1398.08 321.437H1413.4V325.71H1398.08C1398.08 324.973 1398.22 324.237 1398.22 323.647C1398.22 322.763 1398.08 322.174 1398.08 321.437ZM1364.93 296.977C1379.51 296.977 1391.45 308.912 1391.45 323.5C1391.45 338.088 1379.51 350.023 1364.93 350.023C1350.34 350.023 1338.41 338.088 1338.41 323.5C1338.26 308.912 1350.19 296.977 1364.93 296.977Z" fill="#479547"/>
<path d="M1187.38 423.846C1191.36 421.341 1195.05 418.541 1198.73 415.594L1201.38 413.384L1197.11 408.227L1194.46 410.437C1191.07 413.236 1187.38 415.889 1183.7 418.246L1180.9 420.015L1184.58 425.761L1187.38 423.846Z" fill="#479547"/>
<path d="M1215.23 399.091C1218.18 395.554 1220.98 391.723 1223.48 387.745L1225.25 384.945L1219.5 381.261L1217.74 384.061C1215.38 387.745 1212.73 391.429 1209.93 394.818L1207.72 397.47L1212.87 401.743L1215.23 399.091Z" fill="#479547"/>
<path d="M1194.46 236.858L1197.11 239.068L1201.38 233.911L1198.73 231.701C1195.19 228.754 1191.36 225.954 1187.38 223.449L1184.58 221.681L1180.9 227.427L1183.7 229.196C1187.53 231.406 1191.07 234.058 1194.46 236.858Z" fill="#479547"/>
<path d="M1217.88 263.086L1219.65 265.886L1225.4 262.202L1223.63 259.402C1221.12 255.424 1218.32 251.593 1215.38 248.057L1213.17 245.404L1208.01 249.677L1210.22 252.33C1212.87 255.719 1215.53 259.402 1217.88 263.086Z" fill="#479547"/>
<path d="M1231.88 295.209L1232.76 298.45L1239.25 296.682L1238.36 293.44C1237.18 288.873 1235.71 284.452 1234.09 280.032L1232.91 276.937L1226.58 279.442L1227.75 282.537C1229.37 286.81 1230.85 290.936 1231.88 295.209Z" fill="#479547"/>
<path d="M1235.27 317.017C1235.42 319.227 1235.42 321.437 1235.42 323.5C1235.42 325.71 1235.42 327.92 1235.27 330.131L1235.12 333.52L1241.9 333.962L1242.05 330.573C1242.19 328.215 1242.19 325.858 1242.19 323.5C1242.19 321.142 1242.19 318.785 1242.05 316.575L1241.9 313.185L1235.12 313.628L1235.27 317.017Z" fill="#479547"/>
<path d="M1234.09 366.968C1235.86 362.695 1237.18 358.127 1238.36 353.707L1239.25 350.465L1232.76 348.697L1231.88 351.939C1230.7 356.212 1229.37 360.485 1227.75 364.463L1226.58 367.558L1232.91 370.063L1234.09 366.968Z" fill="#479547"/>
</g>
</g>
</svg>
