<svg width="79" height="34" viewBox="0 0 79 34" fill="none" xmlns="http://www.w3.org/2000/svg">
<g id="Logo" clip-path="url(#clip0_23_31932)">
<path id="Vector" d="M10.8567 26.9618C9.67385 27.1695 8.47022 27.2318 7.22513 27.3977L3.42744 16.2747V27.875C2.24462 27.9995 1.16554 28.1655 0.0449219 28.3315V7.08154H3.1993L7.51562 19.1386V7.08154H10.8567V26.9618ZM17.3936 14.8635C18.6803 14.8635 20.6517 14.8013 21.8345 14.8013V18.1215C20.361 18.1215 18.6387 18.1215 17.3936 18.1838V23.1228C19.3443 22.9983 21.295 22.8322 23.2663 22.7699V25.9655L14.0732 26.692V7.08154H23.2663V10.4019H17.3936V14.8635ZM35.6137 10.4019H32.1689V25.6753C31.0483 25.6753 29.9277 25.6754 28.8488 25.7167V10.4019H25.404V7.08154H35.6139L35.6137 10.4019ZM41.0092 14.6353H45.554V17.9556H41.0092V25.4886H37.7509V7.08154H47.0273V10.4019H41.0092V14.6353ZM52.4228 22.5832C54.3113 22.6246 56.2203 22.7701 58.0674 22.8737V26.1526C55.0999 25.9657 52.1323 25.7792 49.1026 25.7167V7.08154H52.4228V22.5832ZM60.8688 26.3809C61.9272 26.4432 63.0478 26.5055 64.1269 26.6298V7.08154H60.8688V26.3809ZM78.6741 7.08154L74.4614 17.1878L78.6741 28.3315C77.4289 28.1655 76.1838 27.9372 74.9386 27.7297L72.5523 21.5872L70.1245 27.2318C68.9206 27.0241 67.7586 26.9618 66.5552 26.7958L70.83 17.0632L66.97 7.08154H70.5392L72.7182 12.6638L75.0425 7.08154H78.6741V7.08154Z" fill="#4C4C4D"/>
</g>
<defs>
<clipPath id="clip0_23_31932">
<rect width="78.625" height="34" fill="white" transform="translate(0.0449219)"/>
</clipPath>
</defs>
</svg>
