<svg width="92" height="34" viewBox="0 0 92 34" fill="none" xmlns="http://www.w3.org/2000/svg">
<g id="Logo" clip-path="url(#clip0_23_31918)">
<g id="Vector">
<path d="M32.2132 24.6319V14.3221H32.3969L39.9014 24.6319H42.263V9.49177H39.639V19.7756H39.4553L31.9508 9.49177H29.5892V24.6319H32.2132ZM49.6888 24.8656C53.1525 24.8656 55.2779 22.6323 55.2779 18.8927C55.2779 15.1791 53.1525 12.9197 49.6888 12.9197C46.2514 12.9197 44.0998 15.1791 44.0998 18.8927C44.126 22.6323 46.2252 24.8656 49.6888 24.8656ZM49.6888 22.6842C47.852 22.6842 46.8025 21.3078 46.8025 18.8927C46.8025 16.5035 47.852 15.1011 49.6888 15.1011C51.5256 15.1011 52.5752 16.5035 52.5752 18.8927C52.5752 21.3078 51.5256 22.6842 49.6888 22.6842ZM57.6657 10.3488V13.2314H55.8289V15.3089H57.6657V21.5675C57.6657 23.8009 58.7153 24.6838 61.3917 24.6838C61.8903 24.6838 62.3889 24.6319 62.7824 24.554V22.5284C62.4676 22.5544 62.2576 22.5803 61.8903 22.5803C60.7882 22.5803 60.2897 22.0869 60.2897 20.9443V15.3089H62.7824V13.2314H60.2897V10.3488H57.6657ZM64.3568 24.6319H66.9808V13.1534H64.3568V24.6319ZM65.6688 11.2577C66.5347 11.2577 67.2432 10.5565 67.2432 9.69952C67.2432 8.81657 66.5347 8.1154 65.6688 8.1154C64.8029 8.1154 64.0944 8.81657 64.0944 9.69952C64.0944 10.5565 64.8029 11.2577 65.6688 11.2577ZM74.1705 24.8656C77.6341 24.8656 79.7595 22.6323 79.7595 18.8927C79.7595 15.1791 77.6341 12.9197 74.1705 12.9197C70.7331 12.9197 68.5814 15.1791 68.5814 18.8927C68.5814 22.6323 70.6806 24.8656 74.1705 24.8656ZM74.1705 22.6842C72.3337 22.6842 71.2841 21.3078 71.2841 18.8927C71.2841 16.5035 72.3337 15.1011 74.1705 15.1011C75.981 15.1011 77.0568 16.5035 77.0568 18.8927C77.0306 21.3078 75.981 22.6842 74.1705 22.6842ZM81.3077 24.6319H83.9316V17.9578C83.9316 16.2698 84.9288 15.205 86.4769 15.205C88.0775 15.205 88.8122 16.088 88.8122 17.8279V24.6319H91.4362V17.2047C91.4362 14.4519 90.0193 12.9197 87.4478 12.9197C85.7159 12.9197 84.5614 13.6988 84.0104 14.9973H83.8267V13.1534H81.2814C81.3077 13.1534 81.3077 24.6319 81.3077 24.6319Z" fill="#4C4C4D"/>
<path fill-rule="evenodd" clip-rule="evenodd" d="M4.42983 8.52274C5.19354 9.13884 5.46977 9.0902 6.8997 8.99292L20.3702 8.18226C20.6627 8.18226 20.419 7.89041 20.3215 7.85799L18.0791 6.25287C17.6566 5.9286 17.0717 5.53948 15.983 5.63676L2.95116 6.59335C2.47993 6.64199 2.38243 6.88519 2.57742 7.06353L4.42983 8.52274ZM5.24229 11.6519V25.79C5.24229 26.552 5.61602 26.8276 6.47722 26.779L21.2802 25.9197C22.1414 25.871 22.2389 25.3522 22.2389 24.7361V10.6953C22.2389 10.0792 21.9952 9.73874 21.4752 9.78738L6.006 10.6953C5.43727 10.744 5.24229 11.0358 5.24229 11.6519ZM19.8503 12.4139C19.9478 12.8355 19.8503 13.2732 19.4278 13.3219L18.7128 13.4678V23.9092C18.0954 24.2335 17.5266 24.428 17.0392 24.428C16.2755 24.428 16.0805 24.1848 15.5117 23.4715L10.8482 16.1592V23.2283L12.3269 23.5525C12.3269 23.5525 12.3269 24.4118 11.1407 24.4118L7.8584 24.6064C7.7609 24.4118 7.8584 23.9416 8.18338 23.8444L9.04459 23.6012V14.2623L7.8584 14.165C7.7609 13.7434 8.00464 13.1273 8.67086 13.0787L12.1969 12.8355L17.0554 20.2288V13.6948L15.8205 13.5489C15.723 13.0301 16.113 12.6409 16.5842 12.5923L19.8503 12.4139ZM1.86246 5.29628L15.4305 4.30726C17.0879 4.16134 17.5266 4.25862 18.5666 5.02065L22.8889 8.05255C23.6038 8.57138 23.8476 8.7173 23.8476 9.28476V25.9359C23.8476 26.9735 23.4738 27.5896 22.1414 27.6869L6.39598 28.6435C5.38853 28.6922 4.9173 28.5462 4.39733 27.8815L1.19625 23.7471C0.627526 22.9851 0.383789 22.4176 0.383789 21.7528V6.95004C0.383789 6.09073 0.773769 5.39356 1.86246 5.29628Z" fill="#4C4C4D"/>
</g>
</g>
<defs>
<clipPath id="clip0_23_31918">
<rect width="91.375" height="34" fill="white" transform="translate(0.383789)"/>
</clipPath>
</defs>
</svg>
