<svg width="69" height="34" viewBox="0 0 69 34" fill="none" xmlns="http://www.w3.org/2000/svg">
<g id="Logo" clip-path="url(#clip0_23_31878)">
<g id="Vector">
<path d="M0.643555 25.0715L7.62378 14.2101H1.47045C1.41831 13.8972 1.39596 13.5545 1.39596 13.1746C1.39596 12.8095 1.41831 12.4743 1.47045 12.1689H11.4305L11.5571 12.5041L4.52477 23.3879H11.1176C11.1698 23.7306 11.1921 24.0882 11.1921 24.4457C11.1921 24.7884 11.1698 25.1162 11.1176 25.4291H0.770197L0.643555 25.0715Z" fill="#4C4C4D"/>
<path d="M20.7872 16.6909C20.7872 15.6703 20.5264 14.97 20.0124 14.5678C19.4984 14.1729 18.746 13.9718 17.7627 13.9718C17.1593 13.9718 16.5931 14.0165 16.0716 14.1134C15.5427 14.2102 15.0361 14.3294 14.5296 14.4858C14.2018 13.9197 14.0379 13.2343 14.0379 12.4447C14.6264 12.2584 15.2671 12.1094 15.9748 12.0051C16.6825 11.9008 17.3604 11.8487 18.0159 11.8487C19.7368 11.8487 21.0479 12.2435 21.9493 13.0257C22.8433 13.8079 23.2977 15.0669 23.2977 16.7877V25.0865C22.6943 25.2206 21.9642 25.3696 21.1001 25.5112C20.2359 25.6602 19.3569 25.7272 18.4629 25.7272C17.6211 25.7272 16.8538 25.6527 16.1759 25.4963C15.498 25.3398 14.9169 25.094 14.4402 24.7439C13.9634 24.4012 13.5984 23.9617 13.3376 23.4253C13.0769 22.8889 12.9503 22.2408 12.9503 21.4884C12.9503 20.7509 13.0992 20.0953 13.4047 19.5366C13.7027 18.9779 14.1124 18.5086 14.6339 18.1436C15.1479 17.7711 15.7438 17.4954 16.4217 17.3167C17.0922 17.1379 17.7999 17.041 18.5449 17.041C19.0961 17.041 19.5506 17.0559 19.9007 17.0783C20.2508 17.1006 20.5488 17.1379 20.7946 17.1677V16.6909H20.7872ZM20.7872 19.2014C20.5264 19.1641 20.1987 19.1343 19.8038 19.0971C19.409 19.0599 19.0738 19.045 18.7981 19.045C17.7254 19.045 16.9134 19.2461 16.3547 19.6409C15.796 20.0357 15.5129 20.6392 15.5129 21.4512C15.5129 21.9652 15.6097 22.3749 15.796 22.6654C15.9822 22.956 16.2206 23.1795 16.5037 23.3359C16.7868 23.4923 17.0997 23.5892 17.4498 23.619C17.7925 23.6562 18.1202 23.6711 18.4331 23.6711C18.8279 23.6711 19.2377 23.6488 19.6623 23.6041C20.0869 23.5594 20.4594 23.4998 20.7872 23.4104V19.2014Z" fill="#4C4C4D"/>
<path d="M26.0912 12.1694C26.2625 12.1322 26.4413 12.1098 26.6201 12.0949C26.7989 12.08 26.9851 12.0726 27.1788 12.0726C27.3502 12.0726 27.529 12.08 27.7226 12.0949C27.9089 12.1098 28.0951 12.1396 28.2665 12.1694C28.2814 12.2067 28.3037 12.311 28.3335 12.4898C28.3559 12.6686 28.3857 12.8622 28.408 13.0708C28.4304 13.2794 28.4602 13.4731 28.4825 13.6668C28.5049 13.8605 28.5198 13.9797 28.5198 14.0318C28.6911 13.7562 28.8997 13.488 29.1381 13.2273C29.3764 12.9665 29.667 12.7356 30.0022 12.527C30.3374 12.3184 30.7174 12.1545 31.142 12.0353C31.5666 11.9162 32.0359 11.8566 32.55 11.8566C33.3247 11.8566 34.0473 11.9832 34.7103 12.2439C35.3733 12.5047 35.9395 12.8995 36.4163 13.4433C36.893 13.9871 37.2581 14.6799 37.5262 15.5143C37.7944 16.3486 37.9285 17.3394 37.9285 18.4792C37.9285 20.7588 37.3102 22.5392 36.081 23.8205C34.8444 25.1019 33.1012 25.75 30.844 25.75C30.4641 25.75 30.0767 25.7276 29.6819 25.6755C29.2871 25.6233 28.9369 25.5563 28.6464 25.4669V31.5457C28.4378 31.583 28.2218 31.6053 27.9834 31.6202C27.7524 31.6351 27.5364 31.6426 27.3502 31.6426C27.1639 31.6426 26.9479 31.6351 26.717 31.6202C26.486 31.6053 26.27 31.5755 26.0837 31.5457V12.1694H26.0912ZM28.6538 23.2618C28.9816 23.381 29.3169 23.4704 29.6595 23.5226C30.0022 23.5747 30.4492 23.597 31.0079 23.597C31.6262 23.597 32.1998 23.5002 32.7138 23.2991C33.2279 23.0979 33.6748 22.7925 34.0473 22.3828C34.4198 21.9656 34.7103 21.4441 34.9264 20.8184C35.1424 20.1926 35.2467 19.4402 35.2467 18.5835C35.2467 17.2053 34.9934 16.1102 34.4868 15.2982C33.9803 14.4862 33.1459 14.084 31.9912 14.084C31.5592 14.084 31.1494 14.1585 30.7472 14.3149C30.3523 14.4713 29.9948 14.7023 29.6893 15.0152C29.3764 15.328 29.1306 15.7154 28.9369 16.1922C28.7432 16.669 28.6538 17.2277 28.6538 17.8832V23.2618Z" fill="#4C4C4D"/>
<path d="M41.1169 14.1803H39.4333C39.3961 14.0387 39.3737 13.8823 39.3588 13.7035C39.3439 13.5247 39.3365 13.3459 39.3365 13.1746C39.3365 13.0032 39.3439 12.8244 39.3588 12.6456C39.3737 12.4669 39.4035 12.303 39.4333 12.1689H43.6274V25.4365C43.4412 25.4738 43.2251 25.4961 42.9942 25.511C42.7633 25.5259 42.5472 25.5334 42.361 25.5334C42.1897 25.5334 41.9885 25.5259 41.7501 25.511C41.5192 25.4961 41.3032 25.4663 41.1169 25.4365V14.1803Z" fill="#4C4C4D"/>
<path d="M49.1326 19.4325C49.1699 20.8777 49.5423 21.943 50.2575 22.6135C50.9727 23.2839 52.0305 23.6192 53.4236 23.6192C54.6453 23.6192 55.8149 23.4031 56.9174 22.9711C57.0589 23.2318 57.1707 23.5447 57.2526 23.9171C57.342 24.2896 57.3867 24.6546 57.4091 25.0197C56.8429 25.2581 56.2171 25.4443 55.5318 25.5635C54.8539 25.6827 54.094 25.7423 53.2671 25.7423C52.0603 25.7423 51.0248 25.5709 50.1607 25.2357C49.2965 24.9005 48.5888 24.4237 48.0301 23.8129C47.4714 23.202 47.0616 22.4794 46.8009 21.6376C46.5402 20.8032 46.4135 19.8869 46.4135 18.8813C46.4135 17.8979 46.5402 16.9816 46.786 16.1249C47.0318 15.2682 47.4192 14.5307 47.9332 13.8975C48.4473 13.2717 49.1028 12.7652 49.885 12.4001C50.6672 12.0277 51.5984 11.8414 52.6637 11.8414C53.58 11.8414 54.3771 11.9979 55.0699 12.3107C55.7627 12.6236 56.3363 13.0483 56.8057 13.5921C57.2675 14.1359 57.6251 14.784 57.8635 15.529C58.1019 16.2814 58.2285 17.0934 58.2285 17.9724C58.2285 18.2108 58.2211 18.4715 58.1987 18.7323C58.1838 19.0004 58.1615 19.2314 58.1466 19.4176H49.1326V19.4325ZM55.7031 17.518C55.7031 17.0338 55.6361 16.5719 55.5094 16.1324C55.3828 15.6928 55.1891 15.3129 54.9433 14.9851C54.69 14.6574 54.3771 14.3966 53.9897 14.1955C53.6023 13.9943 53.1405 13.8975 52.6041 13.8975C51.5537 13.8975 50.7492 14.2178 50.183 14.851C49.6243 15.4917 49.2816 16.3782 49.1624 17.518H55.7031Z" fill="#4C4C4D"/>
<path d="M61.0594 12.1689C61.2456 12.1316 61.4319 12.1093 61.6032 12.0944C61.7746 12.0795 61.9533 12.072 62.147 12.072C62.3333 12.072 62.527 12.0795 62.7132 12.0944C62.8994 12.1093 63.0782 12.1391 63.2272 12.1689C63.2794 12.4296 63.3315 12.7648 63.3837 13.1895C63.4358 13.6141 63.4581 13.9717 63.4581 14.2622C63.8232 13.6737 64.2999 13.1671 64.8959 12.735C65.4919 12.303 66.2517 12.0869 67.1829 12.0869C67.3245 12.0869 67.466 12.0944 67.6075 12.1018C67.7565 12.1093 67.8757 12.1242 67.98 12.1391C68.0173 12.2955 68.0396 12.4594 68.0545 12.6307C68.0694 12.8021 68.0769 12.9809 68.0769 13.1746C68.0769 13.3832 68.062 13.5992 68.0396 13.8227C68.0173 14.0462 67.98 14.2622 67.9502 14.4708C67.8087 14.4335 67.6671 14.4186 67.5256 14.4186C67.3766 14.4186 67.2649 14.4186 67.1755 14.4186C66.7136 14.4186 66.2666 14.4857 65.842 14.6123C65.4174 14.739 65.0375 14.9699 64.7022 15.2977C64.367 15.6255 64.0988 16.0724 63.8977 16.6461C63.6965 17.2122 63.5997 17.9497 63.5997 18.8437V25.4365C63.4134 25.4738 63.1974 25.4961 62.9665 25.511C62.7355 25.5259 62.5195 25.5334 62.3333 25.5334C62.147 25.5334 61.931 25.5259 61.7001 25.511C61.4691 25.4961 61.2456 25.4663 61.037 25.4365V12.1689H61.0594Z" fill="#4C4C4D"/>
<path d="M46.0633 4.36204H43.5603L45.3333 2.58905C45.1917 2.39536 45.0353 2.20912 44.8714 2.03778C44.7 1.86644 44.5213 1.71 44.3201 1.57591L42.5471 3.3489V0.845851C42.3162 0.808604 42.0778 0.786255 41.832 0.786255H41.8245C41.5787 0.786255 41.3403 0.808604 41.1094 0.845851V3.3489L39.3364 1.57591C39.1427 1.71745 38.9564 1.87389 38.7851 2.03778C38.6138 2.20912 38.4648 2.38791 38.3232 2.58905L40.1037 4.36204H37.6006C37.6006 4.36204 37.541 4.83136 37.541 5.0772C37.541 5.32303 37.5634 5.56142 37.6006 5.79235H40.1037L38.3307 7.56534C38.6063 7.95272 38.949 8.2954 39.3438 8.57848L41.1168 6.80549V9.30854C41.3478 9.34579 41.5861 9.36814 41.832 9.36814H41.8394C42.0853 9.36814 42.3236 9.34579 42.5546 9.30854V6.80549L44.3276 8.57848C44.5213 8.43694 44.7075 8.2805 44.8788 8.11661C45.0502 7.94527 45.2066 7.76648 45.3407 7.56534L43.5677 5.79235H46.0708C46.108 5.56142 46.1304 5.32303 46.1304 5.0772V5.06975C46.1229 4.83136 46.108 4.59297 46.0633 4.36204ZM42.9047 5.08464C42.9047 5.40498 42.8451 5.71041 42.7408 5.99349C42.4577 6.09778 42.1523 6.15738 41.832 6.15738C41.5116 6.15738 41.2062 6.09778 40.9231 5.99349C40.8188 5.71041 40.7592 5.40498 40.7592 5.08464V5.0772C40.7592 4.75686 40.8188 4.45143 40.9231 4.16835C41.2062 4.06406 41.5116 4.00446 41.832 4.00446C42.1523 4.00446 42.4577 4.06406 42.7408 4.16835C42.8451 4.45143 42.9047 4.75686 42.9047 5.08464Z" fill="#4C4C4D"/>
</g>
</g>
<defs>
<clipPath id="clip0_23_31878">
<rect width="68" height="34" fill="white" transform="translate(0.642578)"/>
</clipPath>
</defs>
</svg>
