<svg width="70" height="34" viewBox="0 0 70 34" fill="none" xmlns="http://www.w3.org/2000/svg">
<g id="Logo" clip-path="url(#clip0_23_31884)">
<path id="Vector" fill-rule="evenodd" clip-rule="evenodd" d="M56.9652 14.5915C57.2302 15.0488 57.3169 15.5691 57.3456 16.1541L57.3832 16.9337V22.3856L57.4217 23.1661C57.4986 24.4407 58.4386 25.3832 59.723 25.4633L60.4994 25.5018V16.9337L60.5378 16.1541C60.5697 15.5757 60.6556 15.0455 60.9248 14.585C61.1991 14.1125 61.5928 13.7206 62.0665 13.4484C62.5401 13.1763 63.077 13.0335 63.6233 13.0345C64.1696 13.0355 64.706 13.1802 65.1786 13.4541C65.6513 13.728 66.0436 14.1213 66.3161 14.5948C66.5812 15.0521 66.6638 15.5822 66.6957 16.1541L66.7342 16.9313V22.3856L66.7726 23.1661C66.8528 24.4473 67.7855 25.3897 69.074 25.4633L69.8504 25.5018V16.1541C69.8504 14.5012 69.1939 12.9159 68.0253 11.7469C66.8568 10.5778 65.2718 9.92075 63.6188 9.9201C62.7341 9.91916 61.8594 10.107 61.0532 10.4712C60.2469 10.8353 59.5276 11.3673 58.9433 12.0316C58.3588 11.3676 57.6395 10.8357 56.8333 10.4715C56.0271 10.1072 55.1525 9.91897 54.2679 9.91928C52.9736 9.91928 51.7726 10.312 50.7778 10.9902C50.1708 10.3128 48.8127 9.91928 48.0331 9.91928V25.5018L48.8127 25.4633C50.1168 25.3774 51.0592 24.4603 51.11 23.1661L51.1517 22.3856V16.9337L51.1901 16.1541C51.2229 15.5659 51.3047 15.0488 51.5705 14.5882C51.845 14.1161 52.2386 13.7242 52.7119 13.4517C53.1852 13.1793 53.7217 13.0357 54.2679 13.0355C54.8144 13.0356 55.3513 13.1794 55.8247 13.4525C56.2982 13.7256 56.6915 14.1184 56.9652 14.5915ZM3.62203 25.4642L4.40169 25.5018H16.0884L16.0499 24.7246C15.9444 23.4434 15.0371 22.5075 13.7519 22.4241L12.9722 22.3856H5.96101L15.3087 13.0346L15.2703 12.2583C15.2097 10.964 14.264 10.0289 12.9722 9.95773L12.1925 9.92255L0.505859 9.91928L0.54431 10.6989C0.646574 11.9678 1.56695 12.9234 2.84156 12.997L3.62203 13.0355H10.6332L1.28552 22.3864L1.32397 23.1661C1.40087 24.4505 2.32779 25.3807 3.62203 25.4633V25.4642ZM44.9741 12.2002C45.6978 12.9236 46.2718 13.7826 46.6634 14.7279C47.055 15.6732 47.2566 16.6865 47.2566 17.7097C47.2566 18.733 47.055 19.7462 46.6634 20.6915C46.2718 21.6369 45.6978 22.4958 44.9741 23.2193C43.5122 24.68 41.5301 25.5006 39.4634 25.5006C37.3967 25.5006 35.4145 24.68 33.9526 23.2193C30.91 20.1767 30.91 15.2427 33.9526 12.2002C34.6755 11.4769 35.5339 10.9032 36.4786 10.5117C37.4233 10.1202 38.4358 9.91862 39.4585 9.91846C40.4827 9.91775 41.4971 10.119 42.4435 10.5106C43.39 10.9023 44.2499 11.4767 44.9741 12.201V12.2002ZM42.7693 14.4066C43.6457 15.2836 44.138 16.4727 44.138 17.7126C44.138 18.9524 43.6457 20.1415 42.7693 21.0186C41.8923 21.8949 40.7032 22.3872 39.4634 22.3872C38.2235 22.3872 37.0344 21.8949 36.1574 21.0186C35.281 20.1415 34.7887 18.9524 34.7887 17.7126C34.7887 16.4727 35.281 15.2836 36.1574 14.4066C37.0344 13.5302 38.2235 13.038 39.4634 13.038C40.7032 13.038 41.8923 13.5302 42.7693 14.4066ZM23.1061 9.91846C24.1288 9.91873 25.1414 10.1204 26.0861 10.5121C27.0308 10.9037 27.8891 11.4776 28.612 12.201C31.6553 15.2427 31.6553 20.1775 28.612 23.2193C27.15 24.68 25.1679 25.5006 23.1012 25.5006C21.0345 25.5006 19.0524 24.68 17.5904 23.2193C14.5479 20.1767 14.5479 15.2427 17.5904 12.2002C18.3134 11.4769 19.1717 10.9032 20.1164 10.5117C21.0611 10.1202 22.0737 9.91862 23.0963 9.91846H23.1061ZM26.4072 14.405C27.2838 15.282 27.7762 16.4713 27.7762 17.7114C27.7762 18.9514 27.2838 20.1407 26.4072 21.0177C25.5301 21.8941 24.341 22.3864 23.1012 22.3864C21.8614 22.3864 20.6722 21.8941 19.7952 21.0177C18.9189 20.1407 18.4266 18.9516 18.4266 17.7118C18.4266 16.4719 18.9189 15.2828 19.7952 14.4058C20.6722 13.5294 21.8614 13.0371 23.1012 13.0371C24.341 13.0371 25.5301 13.5294 26.4072 14.4058V14.405Z" fill="#4C4C4D"/>
</g>
<defs>
<clipPath id="clip0_23_31884">
<rect width="69.4166" height="34" fill="white" transform="translate(0.505859)"/>
</clipPath>
</defs>
</svg>
